General

Complete name                    : The Prestige.2006.Dual-Audio{Hindi-English}BRRip.aaaevilacharya.mkv
Format                           : Matroska
File size                        : 1.35 GiB
Duration                         : 2h 10mn
Overall bit rate                 : 1 486 Kbps
Movie name                       : aaaevilacharya{TiRG}
Encoded date                     : UTC 2011-01-17 03:48:46


Video
ID                               : 1
Format                           : AVC
Format/Info                      : Advanced Video Codec
Format profile                   : High@L5.1
Format settings, CABAC           : Yes
Format settings, ReFrames        : 1 frame
Muxing mode                      : Container profile=Unknown@5.1
Codec ID                         : V_MPEG4/ISO/AVC
Duration                         : 2h 10mn
Bit rate                         : 1 200 Kbps
Width                            : 704 pixels
Height                           : 288 pixels
Display aspect ratio             : 2.35:1
Original display aspect ratio    : 2.40:1
Frame rate                       : 23.976 fps
Color space                      : YUV
Chroma subsampling               : 4:2:0
Bit depth                        : 8 bits
Scan type                        : Progressive
Bits/(Pixel*Frame)               : 0.247
Stream size                      : 1.06 GiB (79%)
Title                            : aaaevilacharya{TiRG}


Audio #1
ID                               : 2
Format                           : MPEG Audio
Format version                   : Version 1
Format profile                   : Layer 3
Mode                             : Joint stereo
Mode extension                   : MS Stereo
Codec ID                         : A_MPEG/L3
Codec ID/Hint                    : MP3
Duration                         : 2h 10mn
Bit rate mode                    : Constant
Bit rate                         : 128 Kbps
Channel(s)                       : 2 channels
Sampling rate                    : 44.1 KHz
Video delay                      : 40ms
Stream size                      : 119 MiB (9%)
Title                            : aaaevilacharya{TiRG}
Writing library                  : LAME3.96.1

Language                         : Hindi

Audio #2
ID                               : 3
Format                           : AC-3
Format/Info                      : Audio Coding 3
Mode extension                   : CM (complete main)
Codec ID                         : A_AC3
Duration                         : 2h 10mn
Bit rate mode                    : Constant
Bit rate                         : 160 Kbps
Channel(s)                       : 6 channels
Channel positions                : Front: L C R, Side: L R, LFE
Sampling rate                    : 48.0 KHz
Stream size                      : 149 MiB (11%)
Title                            : aaaevilacharya{TiRG}

Language                         : English


SCREENSHOTS
 
http://img412.imageshack.us/img412/5307/theprestige2006r1bluray.jpg 
http://img109.imageshack.us/img109/9532/theprestige2006dualaudi.jpg 
http://img40.imageshack.us/img40/9532/theprestige2006dualaudi.jpg 
http://img202.imageshack.us/img202/9532/theprestige2006dualaudi.jpg 
http://img413.imageshack.us/img413/9532/theprestige2006dualaudi.jpg 
http://img838.imageshack.us/img838/9532/theprestige2006dualaudi.jpg 
http://img713.imageshack.us/img713/9532/theprestige2006dualaudi.jpg 
http://img195.imageshack.us/img195/9532/theprestige2006dualaudi.jpg 
http://img148.imageshack.us/img148/9532/theprestige2006dualaudi.jpg 
http://img840.imageshack.us/img840/9532/theprestige2006dualaudi.jpg 
http://img42.imageshack.us/img42/9532/theprestige2006dualaudi.jpg 
http://img222.imageshack.us/img222/9532/theprestige2006dualaudi.jpg 
http://img34.imageshack.us/img34/9532/theprestige2006dualaudi.jpg
